<?xml version="1.0" encoding="utf-8" ?><svg xmlns="http://www.w3.org/2000/svg" xmlns:xlink="http://www.w3.org/1999/xlink" width="2048" height="2048" viewBox="0 0 2048 2048"><path fill="#D1E5F5" transform="scale(4 4)" d="M135.795 78.1839C137.025 71.8926 133.931 63.5091 138.848 57.871C143.503 52.4507 151.26 52.7361 156.216 57.5893C161.104 62.3762 159.775 71.7163 159.746 78.1839L208.265 78.1839C208.46 67.7438 206.176 54.7725 221.062 53.9437C233.879 53.2301 232.277 70.3917 232.245 78.1839C247.811 78.523 264.813 78.1827 280.51 78.1839C280.522 70.2759 279.178 52.4867 292.587 53.9976C306.148 55.5256 303.943 68.4241 303.907 78.1839L326.511 78.165C356.305 78.1628 358.237 84.1069 358.235 113.301L358.228 141.56L358.236 226.433C358.234 240.114 358.713 254.75 358.228 268.339C408.838 281.345 441.816 329.832 428.497 382.069C414.527 436.863 353.648 467.161 300.975 446.061C297.817 444.796 294.525 443.027 291.241 442.239C289.745 442.685 282.32 442.264 280.205 442.253L107.503 442.249C97.1036 442.256 82.7841 441.318 81.718 427.336C80.9169 416.828 81.2557 405.974 81.2562 395.406L81.252 141.56C81.0135 127.816 81.4819 113.817 81.1795 100.035C80.2378 79.1795 97.5704 78.1741 113.042 78.1757L135.795 78.1839Z"/><path fill="#FEA684" transform="scale(4 4)" d="M302.466 272.71C324.7 266.065 334.899 264.341 358.228 268.339C408.838 281.345 441.816 329.832 428.497 382.069C414.527 436.863 353.648 467.161 300.975 446.061C297.817 444.796 294.525 443.027 291.241 442.239C279.823 432.694 265.88 425.663 258.759 411.059C255.948 406.876 253.209 401.462 251.302 396.781C246.97 388.458 244.498 376.592 243.962 367.26C243.757 362.28 243.805 358.078 243.962 353.092C245.009 342.717 247.255 332.36 251.302 322.713C253.775 318.531 256.074 312.925 258.759 308.214C259.617 307.226 260.796 305.606 261.537 304.525C269.231 293.3 279.105 286.412 289.803 278.519C292.076 277.975 299.504 274.027 302.466 272.71Z"/><path fill="#FEE1CB" transform="scale(4 4)" d="M333.957 292.512C371.097 290.893 402.521 319.679 404.155 356.818C405.79 393.956 377.016 425.392 339.878 427.041C302.719 428.691 271.262 399.898 269.626 362.738C267.991 325.578 296.797 294.133 333.957 292.512Z"/><path fill="#EA5073" transform="scale(4 4)" d="M335.393 311.523C345.952 311.039 343.917 321.69 343.913 328.94L343.893 353.092C348.925 353.192 370.477 352.345 373.58 353.755C380.225 356.773 377.792 365.099 371.951 367.26L349.089 367.281C343.458 367.282 332.518 369.272 330.036 362.515C329.094 359.95 329.393 324.318 329.639 319.173C329.836 315.045 331.275 312.925 335.393 311.523Z"/><path fill="#BA80ED" transform="scale(4 4)" d="M135.795 78.1839C137.025 71.8926 133.931 63.5091 138.848 57.871C143.503 52.4507 151.26 52.7361 156.216 57.5893C161.104 62.3762 159.775 71.7163 159.746 78.1839L208.265 78.1839C208.46 67.7438 206.176 54.7725 221.062 53.9437C233.879 53.2301 232.277 70.3917 232.245 78.1839C247.811 78.523 264.813 78.1827 280.51 78.1839C280.522 70.2759 279.178 52.4867 292.587 53.9976C306.148 55.5256 303.943 68.4241 303.907 78.1839L326.511 78.165C356.305 78.1628 358.237 84.1069 358.235 113.301L358.228 141.56L81.252 141.56C81.0135 127.816 81.4819 113.817 81.1795 100.035C80.2378 79.1795 97.5704 78.1741 113.042 78.1757L135.795 78.1839Z"/><path fill="#FED77D" transform="scale(4 4)" d="M208.265 78.1839C208.46 67.7438 206.176 54.7725 221.062 53.9437C233.879 53.2301 232.277 70.3917 232.245 78.1839C232.283 86.7944 233.873 103.688 220.221 103.205C205.861 102.696 208.225 87.4677 208.265 78.1839Z"/><path fill="#FED77D" transform="scale(4 4)" d="M135.795 78.1839C137.025 71.8926 133.931 63.5091 138.848 57.871C143.503 52.4507 151.26 52.7361 156.216 57.5893C161.104 62.3762 159.775 71.7163 159.746 78.1839C159.772 85.0297 161.104 94.1745 156.084 99.4161C149.873 105.9 138.247 102.669 136.276 94.3317C135.436 90.7798 135.618 82.1542 135.795 78.1839Z"/><path fill="#FED77D" transform="scale(4 4)" d="M280.51 78.1839C280.522 70.2759 279.178 52.4867 292.587 53.9976C306.148 55.5256 303.943 68.4241 303.907 78.1839C303.913 87.7321 305.923 103.35 291.97 102.952C278.274 102.562 280.465 87.1777 280.51 78.1839Z"/><path fill="#6F84CA" transform="scale(4 4)" d="M289.803 278.519C285.874 278.755 281.177 278.53 277.128 278.526L220.745 278.515C215.65 278.515 210.21 278.628 205.142 278.513C196.057 278.307 194.963 264.109 205.649 263.73C213.428 263.454 221.112 263.511 228.893 263.512L287.792 263.5C293.949 263.469 305.258 261.867 302.466 272.71C299.504 274.027 292.076 277.975 289.803 278.519Z"/><path fill="#6F84CA" transform="scale(4 4)" d="M251.302 322.713L220.18 322.729C214.817 322.73 209.468 322.88 204.11 322.531C196.117 322.01 196.353 309.046 203.725 308.431C209.45 307.953 215.986 308.206 221.785 308.206L258.759 308.214C256.074 312.925 253.775 318.531 251.302 322.713Z"/><path fill="#6F84CA" transform="scale(4 4)" d="M258.759 411.059C243.098 411.408 218.797 412.231 203.379 410.845C196.173 410.198 196.25 397.823 204.234 397.116C209.887 396.616 215.254 396.77 220.897 396.772L251.302 396.781C253.209 401.462 255.948 406.876 258.759 411.059Z"/><path fill="#6F84CA" transform="scale(4 4)" d="M243.962 367.26L215.32 367.265C211.515 367.27 207.591 367.487 203.801 367.293C196.577 366.487 196.46 354.746 204.133 353.369C212.635 351.842 234.799 352.943 243.962 353.092C243.805 358.078 243.757 362.28 243.962 367.26Z"/><path fill="#02CBE6" transform="scale(4 4)" d="M162.822 174.994C176.382 153.028 188.292 167.827 182.335 174.952C178.85 179.713 173.821 183.448 170.456 187.897C171.3 195.693 171.219 218.25 167.472 223.774C159.333 235.769 144.736 231.848 132.486 232.507C117.601 233.306 112.318 222.64 112.468 209.254L112.524 196.983C112.566 173.598 114.028 168.995 141.037 169.472C152.232 169.67 153.798 168.23 162.822 174.994Z"/><path fill="#3F5BDC" transform="scale(4 4)" d="M162.822 174.994C176.382 153.028 188.292 167.827 182.335 174.952C178.85 179.713 173.821 183.448 170.456 187.897C164.466 192.502 148.872 213.983 142.861 214.396C137.518 214.764 123.881 199.552 123.619 195.9C123.322 191.762 127.271 188.254 131.244 188.186C135.335 188.116 139.393 193.472 142.264 196.123C147.648 190.093 156.495 179.94 162.822 174.994Z"/><path fill="#02CBE6" transform="scale(4 4)" d="M162.822 263.519L163.172 263.287C167.598 260.318 172.699 251.578 178.621 252.706C182.235 253.394 185.254 257.29 184.499 260.988C183.611 265.343 173.666 273.27 170.456 277.691C171.246 283.34 170.708 300.348 170.081 305.764C167.099 324.331 146.378 320.176 133.588 320.747C111.359 321.208 112.678 304.554 112.496 288.452C112.292 270.438 113.743 258.966 135.442 259.653C144.231 259.932 154.974 257.766 162.822 263.519Z"/><path fill="#3F5BDC" transform="scale(4 4)" d="M162.822 263.519L163.172 263.287C167.598 260.318 172.699 251.578 178.621 252.706C182.235 253.394 185.254 257.29 184.499 260.988C183.611 265.343 173.666 273.27 170.456 277.691C163.755 282.127 149.089 302.152 143.464 303.188C137.111 304.359 123.061 287.233 122.782 284.998C122.304 281.165 126.371 276.955 130.069 276.675C134.704 276.323 139.063 282.375 142.264 285.203C147.358 279.794 159.262 269.246 162.822 263.519Z"/><path fill="#9333F2" transform="scale(4 4)" d="M129.524 348.515L145.132 348.484C167.86 348.446 170.02 355.318 170.477 377.099C170.784 391.765 171.321 406.55 153.537 409.763C141.182 409.862 112.563 413.633 112.627 394.097C113.133 377.096 105.933 350.527 129.524 348.515Z"/><path fill="#6F84CA" transform="scale(4 4)" d="M206.929 219.273L305.194 219.266C309.576 219.266 318.74 218.633 322.576 220.462C326.848 222.498 328.475 233.659 317.169 234.435L206.361 234.324C196.01 234.414 193.403 220.013 206.929 219.273Z"/><path fill="#6F84CA" transform="scale(4 4)" d="M204.187 174.994C209.672 174.775 216.951 174.992 222.589 174.991L297.676 174.986C303.752 174.986 315.47 174.463 321.535 175.715C326.905 176.823 327.592 187.46 319.791 189.818L219.078 189.823C214.373 189.822 209.666 189.886 204.965 189.681C196.568 189.316 195.075 177.139 204.187 174.994Z"/></svg>